<?xml version="1.0" standalone="no"?>
<!DOCTYPE svg PUBLIC "-//W3C//DTD SVG 20010904//EN"
 "http://www.w3.org/TR/2001/REC-SVG-20010904/DTD/svg10.dtd">
<svg version="1.0" xmlns="http://www.w3.org/2000/svg"
 width="608.000000pt" height="608.000000pt" viewBox="0 0 608.000000 608.000000"
 preserveAspectRatio="xMidYMid meet">
<metadata>
Created by potrace 1.14, written by Peter Selinger 2001-2017
</metadata>
<g transform="translate(0.000000,608.000000) scale(0.100000,-0.100000)"
fill="#000000" stroke="none">
<path d="M1786 5773 c-1 -1 -13 -4 -26 -7 -14 -3 -40 -9 -58 -15 -18 -5 -34
-10 -37 -11 -11 -2 -34 -9 -115 -35 -246 -79 -502 -262 -715 -510 -108 -125
-242 -334 -322 -500 -26 -55 -48 -102 -48 -105 0 -3 -18 -50 -40 -105 -22 -55
-40 -102 -41 -105 -4 -23 -18 -67 -23 -75 -3 -5 -6 -14 -7 -20 -1 -5 -14 -53
-29 -105 -15 -52 -29 -104 -31 -115 -2 -11 -6 -31 -9 -45 -9 -42 -15 -69 -20
-92 -6 -27 -14 -80 -21 -139 -3 -24 -7 -60 -10 -79 -20 -148 -28 -317 -27
-645 0 -366 4 -447 29 -635 18 -133 21 -155 29 -179 3 -12 8 -34 10 -49 5 -35
13 -69 20 -92 3 -10 8 -29 11 -42 6 -28 7 -32 24 -88 7 -25 14 -49 16 -55 16
-70 119 -322 179 -440 58 -112 124 -227 148 -259 4 -6 34 -48 67 -94 32 -46
78 -106 102 -135 75 -90 250 -261 333 -325 44 -35 85 -67 92 -72 27 -22 123
-80 132 -80 5 0 11 -4 13 -8 3 -9 206 -112 229 -116 8 -2 27 -8 44 -15 48 -20
148 -50 184 -56 19 -3 38 -8 41 -10 4 -3 25 -7 46 -10 22 -3 48 -8 60 -10 117
-25 426 -20 564 10 14 3 39 7 56 9 16 2 53 11 82 19 29 9 52 13 52 10 0 -3 6
-1 13 5 7 6 24 13 38 15 66 12 292 117 389 181 212 139 405 332 541 541 74
114 83 130 84 137 0 4 8 17 18 28 9 11 17 26 17 33 0 7 4 17 10 23 9 9 81 150
86 167 1 4 2 8 4 10 1 1 3 11 5 21 2 10 10 23 17 27 7 5 10 9 7 9 -4 0 6 32
22 71 16 39 29 77 29 84 0 7 7 18 15 25 12 10 15 9 15 -7 0 -11 3 -23 8 -27 4
-4 7 -11 7 -14 2 -26 87 -245 136 -350 22 -46 39 -86 39 -89 0 -3 9 -18 21
-34 11 -16 18 -29 15 -29 -3 0 10 -26 29 -57 19 -32 35 -64 35 -70 0 -7 3 -13
8 -13 4 0 23 -27 41 -60 19 -33 39 -60 43 -60 4 0 8 -6 8 -13 0 -8 9 -22 20
-32 11 -10 20 -21 20 -25 0 -19 201 -230 219 -230 6 0 11 -4 11 -9 0 -19 185
-123 242 -136 88 -19 123 -22 222 -18 149 6 156 7 156 15 0 3 18 9 40 13 22 4
42 11 46 16 3 5 9 7 14 4 4 -3 13 2 20 10 7 8 18 15 24 15 6 0 23 10 37 23 15
12 38 31 51 42 23 19 80 89 106 130 12 20 55 106 56 115 1 3 4 10 8 15 6 10
57 192 64 229 2 11 6 37 8 56 3 19 7 44 9 55 13 56 27 233 32 398 3 76 7 143
11 148 3 5 34 8 70 6 l64 -3 0 53 0 52 -54 -5 c-51 -5 -55 -4 -75 24 -20 28
-26 30 -83 31 -60 0 -93 -12 -82 -30 3 -5 2 -9 -3 -9 -4 0 -8 -51 -8 -113 -1
-146 -10 -232 -36 -337 -23 -89 -93 -250 -109 -250 -6 0 -10 -6 -10 -13 0 -18
-103 -116 -156 -150 -23 -14 -61 -31 -85 -38 -24 -7 -51 -14 -59 -17 -33 -9
-181 -3 -195 8 -8 7 -15 9 -15 5 0 -12 -92 46 -134 84 -46 43 -130 151 -148
192 -7 16 -16 29 -20 29 -5 0 -8 7 -8 15 0 8 -4 15 -10 15 -5 0 -9 3 -8 8 2 7
-33 84 -43 92 -5 5 -33 69 -35 80 0 3 -12 31 -27 64 -15 32 -27 60 -27 62 0 1
-5 15 -12 31 -6 15 -12 33 -14 38 -2 6 -32 96 -67 200 -36 105 -74 224 -86
265 -13 41 -32 104 -43 140 -11 36 -22 72 -23 80 -2 8 -4 15 -5 15 -1 0 -3 10
-6 23 -2 13 -13 51 -24 85 -18 56 -24 137 -10 137 3 0 6 8 7 18 1 25 12 92 17
111 5 16 12 51 22 106 10 58 16 84 29 143 13 57 22 104 30 147 10 60 16 90 20
105 2 8 7 29 10 45 6 34 12 69 20 105 9 44 15 74 21 109 5 32 7 42 19 93 3 13
8 37 11 53 3 17 9 48 14 70 5 22 12 56 15 75 3 19 8 42 10 50 2 8 7 31 10 50
3 19 8 42 10 50 5 16 16 73 20 105 2 11 4 20 5 20 2 0 6 18 14 65 3 19 8 46
11 60 3 14 8 36 11 50 8 45 17 95 20 105 1 6 5 24 8 40 3 17 8 41 11 55 3 14
7 36 10 50 3 14 7 36 10 50 3 14 7 36 10 50 3 14 7 36 10 50 3 14 10 48 15 75
6 28 13 61 16 75 3 14 7 36 9 50 3 14 6 32 8 40 5 18 15 76 21 110 2 14 9 45
15 70 5 25 12 59 15 75 3 17 8 41 11 55 3 14 7 36 10 50 10 51 15 76 21 105 4
17 8 39 10 50 1 11 3 20 4 20 2 0 8 31 15 70 7 47 15 89 21 107 3 9 -1 20 -8
25 -17 10 -746 13 -774 2 -14 -5 -24 -20 -29 -46 -5 -21 -9 -42 -10 -48 -2 -5
-5 -27 -9 -47 -3 -21 -10 -58 -16 -83 -6 -25 -13 -62 -16 -83 -3 -20 -7 -45
-10 -54 -7 -24 -14 -58 -29 -133 -2 -11 -4 -20 -5 -20 -1 0 -3 -9 -4 -20 -2
-17 -18 -101 -21 -115 -3 -10 -25 -116 -30 -140 -3 -14 -8 -41 -10 -60 -2 -19
-6 -44 -9 -55 -15 -64 -35 -165 -40 -200 -7 -44 -14 -80 -16 -80 -2 0 -9 -35
-14 -73 -3 -18 -10 -48 -16 -67 -6 -19 -9 -39 -6 -44 4 -5 2 -12 -3 -15 -5 -3
-12 -27 -17 -53 -4 -27 -8 -50 -9 -53 -1 -3 -5 -26 -9 -52 -5 -26 -12 -46 -16
-43 -5 3 -16 29 -26 58 -9 28 -19 57 -23 62 -3 6 -6 15 -8 20 -3 13 -28 82
-44 120 -7 17 -13 32 -13 35 -2 10 -50 126 -60 145 -6 11 -11 22 -12 25 -3 14
-19 51 -45 103 -16 32 -29 65 -29 73 0 8 -3 14 -7 14 -5 0 -19 27 -33 60 -14
33 -29 60 -33 60 -5 0 -6 4 -3 9 3 5 -1 12 -10 15 -9 4 -14 9 -11 12 5 5 -58
122 -72 134 -3 3 -15 21 -25 40 -63 114 -272 359 -386 450 -24 19 -48 40 -54
45 -21 20 -108 73 -199 124 -47 26 -213 92 -247 97 -14 3 -32 7 -40 11 -8 3
-19 7 -25 9 -48 12 -79 17 -135 20 -67 5 -440 11 -444 7z m549 -478 c53 -14
129 -52 183 -93 68 -51 152 -130 152 -143 0 -6 5 -7 10 -4 6 3 10 -1 10 -9 0
-9 4 -16 9 -16 11 0 129 -157 203 -270 57 -87 81 -129 151 -260 22 -41 44 -81
50 -87 5 -7 6 -13 2 -13 -5 0 -1 -8 7 -17 12 -16 48 -90 118 -248 10 -22 28
-62 41 -90 12 -27 24 -59 26 -70 2 -10 7 -22 11 -25 4 -3 8 -9 9 -15 1 -5 19
-53 39 -105 47 -124 94 -251 99 -270 2 -8 19 -62 38 -120 20 -58 40 -125 47
-150 6 -25 14 -52 17 -60 7 -19 10 -29 17 -58 3 -12 7 -25 9 -30 26 -41 23
-184 -4 -234 -5 -10 -7 -18 -4 -18 3 0 -1 -13 -10 -30 -8 -16 -15 -32 -14 -35
2 -13 -14 -71 -23 -82 -6 -7 -8 -13 -4 -13 3 0 -3 -23 -13 -50 -11 -27 -17
-50 -15 -50 2 0 -5 -24 -15 -52 -11 -29 -28 -82 -40 -118 -11 -36 -25 -79 -32
-95 -7 -17 -13 -35 -15 -42 -4 -19 -84 -235 -102 -273 -9 -19 -17 -42 -18 -50
-2 -8 -7 -23 -13 -35 -5 -11 -19 -40 -29 -65 -60 -141 -84 -190 -160 -340 -46
-91 -88 -166 -93 -168 -5 -2 -9 -8 -9 -13 0 -9 -84 -153 -102 -174 -5 -5 -25
-32 -46 -60 -91 -121 -224 -252 -312 -304 -75 -45 -177 -82 -209 -76 -11 2
-23 0 -26 -5 -3 -5 -11 -7 -18 -5 -7 2 -33 6 -58 9 -86 9 -226 54 -260 83 -8
7 -18 13 -22 13 -3 0 -35 19 -69 43 -95 64 -246 219 -332 342 -74 104 -178
284 -183 314 -1 8 -7 17 -13 21 -6 4 -12 13 -14 21 -1 8 -12 37 -25 64 -13 28
-24 55 -25 60 -1 6 -5 15 -9 21 -11 18 -87 234 -82 234 2 0 -3 16 -11 35 -8
19 -11 35 -8 35 4 0 2 6 -3 12 -6 7 -11 20 -11 28 -1 8 -8 40 -17 70 -9 30
-18 66 -20 80 -2 14 -6 36 -9 50 -4 14 -9 39 -11 55 -3 17 -8 37 -10 45 -2 8
-6 33 -9 55 -9 72 -16 120 -20 142 -12 61 -20 269 -19 508 1 283 8 418 24 447
6 11 6 18 0 18 -6 0 -6 13 -1 33 5 17 11 50 14 72 3 22 8 51 11 65 2 13 7 40
10 60 7 47 22 115 25 115 2 0 5 16 13 55 3 14 15 59 27 99 12 41 23 81 25 90
5 24 80 219 106 276 12 28 23 52 24 55 0 3 7 16 15 30 7 14 28 52 45 85 68
130 114 200 204 310 78 95 230 244 231 226 0 -3 5 2 11 12 5 9 16 17 24 17 8
0 18 6 22 13 7 11 153 88 178 94 5 1 19 4 30 7 112 31 213 38 280 21z"/>
</g>
</svg>
